<svg xmlns="http://www.w3.org/2000/svg" version="1.1" x="0px" y="0px" viewBox="0 0 100 125" enable-background="new 0 0 100 100" xml:space="preserve">
  <g display="none"><path display="inline" fill="#000000" d="M916,927.403H-400c-1.65,0-3-1.35-3-3V-389.993c0-1.65,1.35-3,3-3H916c1.65,0,3,1.35,3,3   V924.403C919,926.053,917.65,927.403,916,927.403z"/>
</g>
<g>
  <path d="M8.062,89.818l2.121,2.121C12.224,93.98,14.905,95,17.587,95c2.681,0,5.363-1.02,7.404-3.061L66.499,50.43   c7.801,1.9,16.027-0.374,21.742-6.089c6.736-6.736,8.627-16.741,4.816-25.491l-0.779-1.789c-0.238-0.548-0.954-0.683-1.376-0.261   L79.855,27.846c-0.434,0.433-1.191,0.435-1.626-0.001l-6.074-6.074c-0.449-0.449-0.449-1.177,0-1.626L83.201,9.099   c0.422-0.422,0.287-1.137-0.261-1.376l-1.789-0.779c-8.749-3.812-18.755-1.921-25.49,4.815c-5.716,5.716-7.99,13.941-6.09,21.742   L8.061,75.011C3.972,79.1,3.972,85.73,8.062,89.818z M11.142,78.09l43.326-43.327l-0.381-1.25   c-2.02-6.629-0.237-13.784,4.653-18.674c3.587-3.588,8.319-5.48,13.156-5.48c1.456,0,2.921,0.172,4.368,0.52l-7.188,7.188   c-2.146,2.147-2.145,5.638,0,7.784l6.074,6.074c1.04,1.039,2.422,1.612,3.892,1.612c1.471,0,2.853-0.573,3.892-1.612l7.187-7.187   c1.505,6.251-0.293,12.856-4.96,17.523h-0.001c-4.89,4.89-12.048,6.672-18.674,4.652l-1.25-0.381L21.912,88.859   c-2.386,2.385-6.266,2.385-8.65,0l-2.121-2.121C8.757,84.354,8.757,80.474,11.142,78.09z"/>
</g>
</svg>
