<svg xmlns="http://www.w3.org/2000/svg" xmlns:xlink="http://www.w3.org/1999/xlink" version="1.1" x="0px" y="0px" viewBox="0 0 100 125" enable-background="new 0 0 100 100" xml:space="preserve"><path d="M12,43c3.86,0,7,3.14,7,7s-3.14,7-7,7s-7-3.14-7-7S8.14,43,12,43 M12,38C5.373,38,0,43.373,0,50s5.373,12,12,12  s12-5.373,12-12S18.627,38,12,38L12,38z"/><path d="M50,43c3.86,0,7,3.14,7,7s-3.14,7-7,7s-7-3.14-7-7S46.14,43,50,43 M50,38c-6.627,0-12,5.373-12,12s5.373,12,12,12  s12-5.373,12-12S56.627,38,50,38L50,38z"/><path d="M88,43c3.86,0,7,3.14,7,7s-3.14,7-7,7s-7-3.14-7-7S84.14,43,88,43 M88,38c-6.627,0-12,5.373-12,12s5.373,12,12,12  s12-5.373,12-12S94.627,38,88,38L88,38z"/><text x="0" y="115" fill="#000000" font-size="5px" font-weight="bold" font-family="'Helvetica Neue', Helvetica, Arial-Unicode, Arial, Sans-serif">Created by LAFS</text><text x="0" y="120" fill="#000000" font-size="5px" font-weight="bold" font-family="'Helvetica Neue', Helvetica, Arial-Unicode, Arial, Sans-serif">from the Noun Project</text></svg>