<svg xmlns="http://www.w3.org/2000/svg" xmlns:xlink="http://www.w3.org/1999/xlink" version="1.1" x="0px" y="0px" viewBox="0 0 100 125" enable-background="new 0 0 100 100" xml:space="preserve"><g><path d="M50,30c-5.5,0-10,4.5-10,10s4.5,10,10,10s10-4.5,10-10S55.5,30,50,30z M50,46c-3.3,0-6-2.7-6-6s2.7-6,6-6s6,2.7,6,6   S53.3,46,50,46z"/><path d="M91.4,40.6l-4-4C86.3,35.4,86,32.8,86,32c0-0.9-0.6-1.7-1.5-1.9c-0.1,0-15-3.7-19.6-6c-7.8-3.9-13.7-8-13.8-8h0   c-0.2,0-0.5-0.1-0.7-0.1c-0.1,0-0.3,0.1-0.4,0.1c-0.1,0-0.2,0-0.3,0C49.4,16,49,16.2,49,16.3v0c0,0-6.1,4-13.8,7.9   c-4.6,2.3-19.4,5.8-19.6,5.8c-0.9,0.2-1.5,1-1.6,1.9c0,0.8-0.3,3.5-1.4,4.6l-4,4c-0.8,0.8-0.8,2,0,2.8L22.2,57   c-0.1,0.3-0.2,0.7-0.2,1v12c0,0.4,0.1,0.8,0.2,1.2c-0.3,0.7-0.2,1.5,0.2,2.1C22.8,73.7,31.3,84,50,84s27.2-10.3,27.6-10.8   c0.5-0.6,0.5-1.4,0.2-2.1c0.1-0.4,0.2-0.8,0.2-1.2V58c0-0.4-0.1-0.7-0.1-1l13.6-13.6C92.2,42.6,92.2,41.4,91.4,40.6z M74,70H26V58   h48V70z M29.3,74h41.5C67,77,60.2,80,50,80C39.8,80,33,77,29.3,74z M75,54.1c-0.3-0.1-0.7-0.1-1-0.1H26c-0.4,0-0.7,0.1-1,0.1   L12.8,42l2.6-2.6c1.7-1.7,2.3-4.2,2.5-5.8c3.9-1,14.9-3.7,19-5.8c6.1-3.1,11-6.1,13.1-7.4c2.1,1.3,7,4.4,13.1,7.4   c4.1,2.1,15.1,4.8,19,5.8c0.2,1.6,0.8,4.1,2.5,5.8l2.6,2.6L75,54.1z"/></g></svg>
