<svg xmlns="http://www.w3.org/2000/svg" version="1.1" x="0px" y="0px" viewBox="0 0 100 125" style="enable-background:new 0 0 100 100;"><path d="M50,22c-15.4,0-28,12.6-28,28s12.6,28,28,28s28-12.6,28-28S65.4,22,50,22z M50,76c-14.3,0-26-11.7-26-26s11.7-26,26-26  s26,11.7,26,26S64.3,76,50,76z M50,46c-2.2,0-4,1.8-4,4s1.8,4,4,4s4-1.8,4-4S52.2,46,50,46z M50,52c-1.1,0-2-0.9-2-2s0.9-2,2-2  s2,0.9,2,2S51.1,52,50,52z M38,46c-2.2,0-4,1.8-4,4s1.8,4,4,4s4-1.8,4-4S40.2,46,38,46z M38,52c-1.1,0-2-0.9-2-2s0.9-2,2-2  s2,0.9,2,2S39.1,52,38,52z M62,46c-2.2,0-4,1.8-4,4s1.8,4,4,4s4-1.8,4-4S64.2,46,62,46z M62,52c-1.1,0-2-0.9-2-2s0.9-2,2-2  s2,0.9,2,2S63.1,52,62,52z"/></svg>
