<svg xmlns="http://www.w3.org/2000/svg" version="1.1" x="0px" y="0px" viewBox="0 0 512 640" enable-background="new 0 0 512 512">
<path d="M510,92.1h-32.8v-41h-65.5v41H100.3v-41H34.8v41H2v147.5h32.8v221.2h65.5V321.5h311.4v139.3h65.5V239.6H510V92.1z   M267.8,223.2l118.7-114.7h95.1L362.9,223.2H267.8z M30.5,223.2l118.7-114.7h95.1L125.5,223.2H30.5z M267.8,108.5h95.1L244.2,223.2  h-95.1L267.8,108.5z M428.1,67.5h32.8v24.6h-32.8V67.5z M51.2,67.5h32.8v24.6H51.2V67.5z M125.5,108.5L18.4,212.1V108.5H125.5z   M51.2,444.5V239.6h32.8v204.8H51.2z M100.3,305.2v-65.5h311.4v65.5H100.3z M460.8,444.5h-32.8V239.6h32.8V444.5z M386.5,223.2  l107.2-103.6v103.6H386.5z"/>
</svg>
